<svg width="100" height="24" viewBox="0 0 100 24" fill="none" xmlns="http://www.w3.org/2000/svg">
<g clip-path="url(#clip0_15076_190620)">
<path d="M96.1045 9.7856V13.6471C96.1135 13.9089 96.0697 14.1698 95.9756 14.4142C95.8815 14.6586 95.739 14.8814 95.5568 15.0693C95.3745 15.2571 95.1562 15.4062 94.915 15.5075C94.6738 15.6087 94.4146 15.6601 94.1531 15.6586C93.8916 15.657 93.633 15.6025 93.393 15.4984C93.153 15.3943 92.9365 15.2427 92.7565 15.0527C92.5765 14.8627 92.4367 14.6382 92.3454 14.3927C92.2542 14.1472 92.2135 13.8858 92.2256 13.6242V9.7856H88.3173V13.6734C88.3173 14.1881 88.1132 14.6817 87.7498 15.0456C87.3864 15.4096 86.8935 15.614 86.3795 15.614C85.8656 15.614 85.3727 15.4096 85.0093 15.0456C84.6459 14.6817 84.4418 14.1881 84.4418 13.6734V9.7856H80.5433V13.6636C80.5259 14.1651 80.3154 14.6405 79.956 14.9902C79.5966 15.34 79.116 15.5369 78.6149 15.5399C78.1138 15.5428 77.6309 15.3516 77.2674 15.0062C76.9039 14.6607 76.6878 14.1879 76.6645 13.6865V7.81543H68.8642C67.3412 7.84608 65.8906 8.47218 64.8225 9.55988C63.7544 10.6476 63.1536 12.1106 63.1485 13.6361C63.1433 15.1616 63.7343 16.6287 64.795 17.7236C65.8558 18.8184 67.3021 19.4543 68.8249 19.4953H70.8217V15.5878H68.8544C68.3396 15.5852 67.8469 15.3778 67.4847 15.0114C67.1226 14.645 66.9206 14.1496 66.9232 13.634C66.9258 13.1185 67.1328 12.6251 67.4986 12.2623C67.8645 11.8996 68.3593 11.6973 68.8741 11.7L72.743 11.6802V13.6504C72.7311 14.7863 73.0523 15.9007 73.6668 16.8554C74.2814 17.8101 75.1623 18.5632 76.2002 19.0212C77.2382 19.4792 78.3875 19.6221 79.5058 19.432C80.624 19.2419 81.662 18.7273 82.4909 17.952C83.5616 18.9364 84.9622 19.4826 86.4156 19.4826C87.8691 19.4826 89.2696 18.9364 90.3403 17.952C91.4127 18.9399 92.8178 19.4863 94.2749 19.4821C97.5537 19.4821 100.003 16.7534 100.003 13.5388V9.7856H96.1045Z" fill="#FC4174"/>
<path d="M60.284 13.627C60.284 10.5864 57.7167 7.2371 53.4608 7.85442L60.284 1.01135V0H55.8117L46.1655 9.73922V11.6864H54.4706C54.9712 11.707 55.4444 11.9207 55.7913 12.2827C56.1382 12.6447 56.3319 13.1269 56.3319 13.6287C56.3319 14.1304 56.1382 14.6127 55.7913 14.9747C55.4444 15.3367 54.9712 15.5503 54.4706 15.5709H42.8407C42.5731 15.5785 42.3068 15.5306 42.0586 15.4303C41.8103 15.3299 41.5853 15.1793 41.3979 14.9879C41.2104 14.7965 41.0645 14.5683 40.9692 14.3178C40.8738 14.0672 40.8312 13.7996 40.844 13.5318V0H36.9488V13.627C36.9488 14.1417 36.7446 14.6353 36.3812 14.9993C36.0178 15.3632 35.5249 15.5676 35.011 15.5676C34.4971 15.5676 34.0042 15.3632 33.6408 14.9993C33.2774 14.6353 33.0732 14.1417 33.0732 13.627V9.73922H29.1747V13.6434C29.169 14.1469 28.9687 14.6286 28.616 14.9873C28.2632 15.3461 27.7854 15.5541 27.2829 15.5676H24.9615C25.2932 14.6209 25.3762 13.6046 25.2026 12.6164C25.029 11.6282 24.6046 10.7013 23.9701 9.92479C23.3356 9.14826 22.5124 8.54816 21.5796 8.18214C20.6467 7.81612 19.6356 7.69649 18.6432 7.83472L25.3746 1.06718V0.0262646H20.9318L11.2299 9.74579V11.6963H19.4957C19.7489 11.6953 19.9997 11.7452 20.2333 11.8431C20.4668 11.941 20.6784 12.0849 20.8554 12.2661C21.0325 12.4474 21.1714 12.6624 21.2639 12.8985C21.3564 13.1345 21.4007 13.3867 21.3941 13.6402C21.3934 14.1478 21.1944 14.6351 20.8396 14.9977C20.4849 15.3604 20.0025 15.5696 19.4957 15.5808H0V19.4916H27.237C28.6724 19.4909 30.0567 18.9574 31.1223 17.9942C32.1827 18.958 33.5659 19.4877 34.9979 19.4784C36.436 19.4753 37.8235 18.9463 38.8996 17.991C39.98 18.9609 41.3833 19.4914 42.8342 19.4784H54.4805C56.0246 19.4724 57.5032 18.8527 58.5913 17.7555C59.6795 16.6583 60.2883 15.1734 60.284 13.627V13.627Z" fill="#234099"/>
<path d="M27.8696 20.7529H27.7188V20.904V23.8461V24.0004H27.8696H30.8107H30.9615V23.8461V20.904V20.7529H30.8107H27.8696Z" fill="#234099"/>
<path d="M23.6561 20.7529H23.502V20.904V23.8461V24.0004H23.6561H26.5939H26.7447V23.8461V20.904V20.7529H26.5939H23.6561Z" fill="#234099"/>
</g>
<defs>
<clipPath id="clip0_15076_190620">
<rect width="100" height="24" fill="white"/>
</clipPath>
</defs>
</svg>
